<svg xmlns="http://www.w3.org/2000/svg" fill-rule="evenodd" stroke-linejoin="round" stroke-miterlimit="2" clip-rule="evenodd" viewBox="0 0 100 101" id="address">
  <path d="M17.124,54.299l-7.754,0c-2.33,0 -4.432,-1.399 -5.331,-3.548c-0.9,-2.149 -0.421,-4.628 1.214,-6.287c8.941,-9.076 34.53,-35.049 40.63,-41.241c1.086,-1.102 2.569,-1.723 4.117,-1.723c1.548,0 3.031,0.621 4.117,1.723c6.1,6.192 31.689,32.165 40.63,41.241c1.635,1.659 2.114,4.138 1.214,6.287c-0.899,2.149 -3.001,3.548 -5.331,3.548l-7.754,0l0,39.422c0,1.533 -0.609,3.003 -1.693,4.086c-1.084,1.084 -2.553,1.693 -4.086,1.693l-54.194,0c-1.533,0 -3.002,-0.609 -4.086,-1.693c-1.084,-1.083 -1.693,-2.553 -1.693,-4.086l0,-39.422Zm3.93,-3.931l-11.684,0c-0.746,0 -1.418,-0.447 -1.706,-1.135c-0.288,-0.687 -0.134,-1.48 0.389,-2.011c8.941,-9.076 34.53,-35.049 40.63,-41.24c0.347,-0.353 0.822,-0.552 1.317,-0.552c0.495,0 0.97,0.199 1.317,0.552c6.1,6.191 31.689,32.164 40.63,41.24c0.523,0.531 0.677,1.324 0.389,2.011c-0.288,0.688 -0.96,1.135 -1.706,1.135l-11.684,0l0,43.353c0,0.49 -0.195,0.96 -0.542,1.307c-0.347,0.347 -0.817,0.542 -1.307,0.542l-54.194,0c-0.49,0 -0.96,-0.195 -1.307,-0.542c-0.347,-0.347 -0.542,-0.817 -0.542,-1.307l0,-43.353Zm25.954,38.42c0.746,0.877 1.84,1.382 2.992,1.382c1.152,0 2.246,-0.505 2.992,-1.382c0,0 10.018,-11.777 16.033,-22.372c2.912,-5.131 4.812,-10.083 4.812,-13.573c0,-13.156 -10.681,-23.837 -23.837,-23.837c-13.156,-0 -23.837,10.681 -23.837,23.837c0,3.49 1.9,8.442 4.812,13.573c6.015,10.595 16.033,22.372 16.033,22.372Zm2.992,-2.548c0,0 -19.907,-23.378 -19.907,-33.397c0,-10.987 8.92,-19.907 19.907,-19.907c10.987,-0 19.907,8.92 19.907,19.907c0,10.019 -19.907,33.397 -19.907,33.397Zm0,-48.941c-8.671,-0 -15.71,7.039 -15.71,15.71c0,8.67 7.039,15.71 15.71,15.71c8.671,-0 15.71,-7.04 15.71,-15.71c0,-8.671 -7.039,-15.71 -15.71,-15.71Zm3.994,20.81c-1.151,0.744 -2.523,1.177 -3.994,1.177c-1.471,-0 -2.843,-0.433 -3.994,-1.177c-1.539,0.942 -2.708,2.431 -3.238,4.196c1.997,1.556 4.507,2.483 7.232,2.483c2.725,0 5.235,-0.927 7.232,-2.483c-0.53,-1.765 -1.699,-3.253 -3.238,-4.196Zm6.12,0.939c1.057,-1.766 1.666,-3.832 1.666,-6.039c0,-6.502 -5.279,-11.78 -11.78,-11.78c-6.501,-0 -11.78,5.278 -11.78,11.78c0,2.207 0.609,4.273 1.666,6.039c0.844,-1.559 2.042,-2.899 3.487,-3.911c-0.474,-0.972 -0.74,-2.064 -0.74,-3.218c0,-4.066 3.301,-7.367 7.367,-7.367c4.066,-0 7.367,3.301 7.367,7.367c0,1.154 -0.266,2.246 -0.74,3.219c1.445,1.011 2.643,2.351 3.487,3.91Zm-10.114,-10.565c1.897,-0 3.436,1.54 3.436,3.436c0,1.897 -1.539,3.436 -3.436,3.436c-1.897,-0 -3.436,-1.539 -3.436,-3.436c0,-1.896 1.539,-3.436 3.436,-3.436Z"></path>
</svg>
