<svg xmlns="http://www.w3.org/2000/svg" viewBox="0 0 64 64" id="doctor">
  <circle cx="19" cy="46" r="3"></circle>
  <path d="M9,42V62H55V42a9.977,9.977,0,0,0-3.68-7.747,8.975,8.975,0,0,1-1.832,5.862,4.994,4.994,0,0,1,.943,2.069l.472,2.357a4.991,4.991,0,0,1-1.368,4.516L45.392,53.2a1,1,0,0,1-1.414,0l-1.414-1.414-.707.707-1.414-1.414,2.828-2.829,1.414,1.414-.707.707.707.708,3.436-3.436a3,3,0,0,0,.821-2.71l-.472-2.357a2.994,2.994,0,0,0-2.353-2.354l-2.357-.471a3,3,0,0,0-2.709.82l-3.437,3.436.707.708.707-.708,1.414,1.414L37.614,48.25,36.2,46.836l.707-.707-1.414-1.415a1,1,0,0,1,0-1.414l4.143-4.143a4.977,4.977,0,0,1,4.516-1.367l2.357.471a5.035,5.035,0,0,1,1.462.544,7,7,0,0,0,1.136-5.916A9.955,9.955,0,0,0,45,32H39.1a18.228,18.228,0,0,1,.47-6.07,11.727,11.727,0,0,0,3.41-7.6A3.769,3.769,0,0,0,45,14.75a4.266,4.266,0,0,0-1-2.83v-.04c0-2.74-2.24-7.169-5-7.169-.01,0,2.01-.711,2-.711-.7-.93-3.82-.74-5-1-.91-1.27-2.31.181-4,.181s-6.09.029-7,1.3c-1.18.26-4.22-.93-4.92,0,0,.01,2,1.71,2,1.72C19.32,6.2,20,9.14,20,11.88v.04a4.266,4.266,0,0,0-1,2.83,3.769,3.769,0,0,0,2.02,3.58,11.727,11.727,0,0,0,3.41,7.6A18.228,18.228,0,0,1,24.9,32H20v8.09a6,6,0,1,1-2,0V32.05A10,10,0,0,0,9,42Zm23-4a5.994,5.994,0,0,1-5.41-3.419h0a21.273,21.273,0,0,0,.26-6.71c.16.1.32.2.49.29l2.11,1.18a5.256,5.256,0,0,0,5.1,0l2.11-1.18c.17-.09.33-.19.49-.29a21.273,21.273,0,0,0,.26,6.71h0A5.994,5.994,0,0,1,32,38ZM24.67,23.08A9.561,9.561,0,0,1,23,17.73v-.19a.994.994,0,0,0-1-.99c-.47,0-1-.77-1-1.8s.53-1.8,1-1.8a.944.944,0,0,0,.57-.18l.27-.18a13.741,13.741,0,0,1,7.83-2.43h2.66a13.741,13.741,0,0,1,7.83,2.43l.27.18a.944.944,0,0,0,.57.18c.47,0,1,.77,1,1.8s-.53,1.8-1,1.8a.994.994,0,0,0-1,.99v.19a9.561,9.561,0,0,1-1.67,5.35,10.064,10.064,0,0,1-1.63,1.89.01.01,0,0,0-.01.01,10.1,10.1,0,0,1-2.01,1.45l-2.11,1.18a3.246,3.246,0,0,1-3.14,0l-2.11-1.18a10.694,10.694,0,0,1-3.65-3.35Z"></path>
</svg>
