<svg xmlns="http://www.w3.org/2000/svg" width="96" height="96" fill="none" viewBox="0 0 96 96" id="exit">
  <path stroke="#12182B" stroke-linecap="round" stroke-width="5" d="M44 78H57C60.3137 78 63 75.3137 63 72V56.5M12 61V16C12 12.6863 14.6863 10 18 10H57C60.3137 10 63 12.6863 63 16V33"></path>
  <path stroke="#12182B" stroke-width="5" d="M12 18.8864C12 14.6352 16.2993 11.7324 20.2425 13.3213L37.2425 20.1713C39.5129 21.0862 41 23.2886 41 25.7365V81.1136C41 85.3649 36.7007 88.2676 32.7575 86.6787L15.7575 79.8287C13.4871 78.9138 12 76.7114 12 74.2635V18.8864Z"></path>
  <path stroke="#12182B" stroke-linecap="round" stroke-width="5" d="M79 54L84.818 48.182C86.5754 46.4246 86.5754 43.5754 84.818 41.818L79 36M76 45H52"></path>
</svg>
