<svg xmlns="http://www.w3.org/2000/svg" viewBox="0 0 48 48" id="gender">
  <path d="M44.5,15.67v6.72a.5.5,0,0,1-.5.5H41.95a.5.5,0,0,1-.5-.5V20.38l-2.03,2.03a11.081,11.081,0,0,1,2.23,6.67c0,.34-.02.68-.04,1.01a.584.584,0,0,1,.02.19A11.062,11.062,0,0,1,22.8,37.01a11.137,11.137,0,0,1-3.2-6.92c-.01-.11-.02-.22-.02-.33a12.2,12.2,0,0,0,3.14-2.1,7.428,7.428,0,0,0-.13,1.42,8.01,8.01,0,1,0,13.67-5.66,8.62,8.62,0,0,0-1.89-1.41h-.01a8.083,8.083,0,0,0-2.19-.79,8.192,8.192,0,0,0-1.57-.15,8.045,8.045,0,0,0-4.45,1.36,7.588,7.588,0,0,0-1.21.99,7.028,7.028,0,0,0-.52.57,7.632,7.632,0,0,0-.73,1.07c-.02.01-.03.02-.02.03a10.771,10.771,0,0,1-2.28,2.39,12.913,12.913,0,0,1-1.78,1.15c-.01.01-.02.01-.03.02a.612.612,0,0,1-.12.05,10.77,10.77,0,0,1-3.34,1.04.06.06,0,0,1-.04.01v2.29H18.3a.5.5,0,0,1,.5.5v2.05a.5.5,0,0,1-.5.5H16.08v2.25a.508.508,0,0,1-.5.5H13.53a.5.5,0,0,1-.5-.5V35.09H10.82a.5.5,0,0,1-.5-.5V32.54a.5.5,0,0,1,.5-.5h2.21V29.75A11,11,0,0,1,3.5,18.8a11.133,11.133,0,0,1,2.04-6.4,11,11,0,0,1,9.02-4.65,11.325,11.325,0,0,1,1.68.13,10.947,10.947,0,0,1,7.99,5.56v.01a10.937,10.937,0,0,1,1.32,4.26v.05c.01.12.03.24.03.36a9.971,9.971,0,0,0-1.33.72,11.331,11.331,0,0,0-1.82,1.38A8,8,0,1,0,7.66,22.87a8.113,8.113,0,0,0,4.65,3.62,8.632,8.632,0,0,0,.88.2,7.971,7.971,0,0,0,7.58-2.85c.01-.01.01-.01.01-.02.1-.12.2-.25.29-.38.01-.01.01-.02.03-.03.021-.043.308-.453.33-.52,0,0,.006-.007.01-.01a11,11,0,0,1,2.81-2.85,8.913,8.913,0,0,1,.82-.52,9.739,9.739,0,0,1,1.92-.88,11.093,11.093,0,0,1,10.27,1.63l2.03-2.04H37.28a.5.5,0,0,1-.5-.5V15.67a.5.5,0,0,1,.5-.5H44A.5.5,0,0,1,44.5,15.67Z"></path>
</svg>
