<svg xmlns="http://www.w3.org/2000/svg" width="32" height="32" viewBox="0 0 32 32" id="id-card">
  <path fill-rule="evenodd" d="m 209,202 c -1.64469,0 -3,1.35531 -3,3 v 14 c 0,1.64469 1.35531,3 3,3 h 22 c 1.64469,0 3,-1.35531 3,-3 v -14 c 0,-1.64469 -1.35531,-3 -3,-3 z m 6,4 c 1.64501,0 3,1.35499 3,3 0,1.64501 -1.35499,3 -3,3 -1.64501,0 -3,-1.35499 -3,-3 0,-1.64501 1.35499,-3 3,-3 z m 7,0 h 7 a 1,1 0 0 1 1,1 1,1 0 0 1 -1,1 h -7 a 1,1 0 0 1 -1,-1 1,1 0 0 1 1,-1 z m 0,5 h 7 a 1,1 0 0 1 1,1 1,1 0 0 1 -1,1 h -7 a 1,1 0 0 1 -1,-1 1,1 0 0 1 1,-1 z m -8,2 h 2 c 1.64501,0 3,1.35499 3,3 v 1 a 1,1 0 0 1 -1,1 1,1 0 0 1 -1,-1 v -1 c 0,-0.56413 -0.43587,-1 -1,-1 h -2 c -0.56413,0 -1,0.43587 -1,1 v 1 a 1,1 0 0 1 -1,1 1,1 0 0 1 -1,-1 v -1 c 0,-1.64501 1.35499,-3 3,-3 z m 8,3 h 7 a 1,1 0 0 1 1,1 1,1 0 0 1 -1,1 h -7 a 1,1 0 0 1 -1,-1 1,1 0 0 1 1,-1 z" color="#000" style="-inkscape-stroke:none" transform="translate(-204 -196)"></path>
</svg>
