<svg xmlns="http://www.w3.org/2000/svg" viewBox="0 0 32 32" id="vaccination">
  <path d="M25.81,24.82,22,21a3.81,3.81,0,0,0-.6-4.58L14,9a1.73,1.73,0,0,0-2.44,0l-.77.77L10,9a2.38,2.38,0,0,0,0-3,1.85,1.85,0,0,0-1.37-.54h0A3.64,3.64,0,0,0,6.19,6.6,4,4,0,0,0,5.12,8.39a2,2,0,0,0,.46,2A1.85,1.85,0,0,0,7,11a3.2,3.2,0,0,0,1.64-.53l.75.75-.77.77a1.73,1.73,0,0,0,0,2.44L11,16.85h0l2.59,2.59h0L16,21.78a3.81,3.81,0,0,0,2.7,1.11,3.85,3.85,0,0,0,1.88-.51l3.85,3.85a1,1,0,0,0,.71.3,1,1,0,0,0,.7-1.71ZM7.05,8.94A1.82,1.82,0,0,1,7.6,8a1.82,1.82,0,0,1,.92-.55A1.94,1.94,0,0,1,8,8.39,1.94,1.94,0,0,1,7.05,8.94Zm4.7,5.79.47-.47a1,1,0,0,1,1.42,0,1,1,0,0,1,0,1.41l-.48.47Zm2.59,2.59.47-.48a1,1,0,0,1,1.42,1.42l-.48.47Z"></path>
</svg>
